<svg xmlns="http://www.w3.org/2000/svg" viewBox="0 0 960 600"><title>Экран с преобразуемым визуальным сигналом</title><defs><radialGradient id="bg"><stop stop-color="#282828"/><stop offset=".65" stop-color="#121212"/><stop offset="1" stop-color="#080808"/></radialGradient><radialGradient id="ball" cx=".25" cy=".18" r=".88"><stop stop-color="#fff"/><stop offset=".2" stop-color="#c8c8c8"/><stop offset=".48" stop-color="#666"/><stop offset=".75" stop-color="#202020"/><stop offset="1" stop-color="#090909"/></radialGradient><linearGradient id="metal" x1="0" y1="0" x2=".7" y2="1"><stop stop-color="#ddd"/><stop offset=".22" stop-color="#666"/><stop offset=".5" stop-color="#292929"/><stop offset="1" stop-color="#111"/></linearGradient><linearGradient id="wire" x1="0" y1="0" x2="1" y2="1"><stop stop-color="#777"/><stop offset=".4" stop-color="#eee"/><stop offset="1" stop-color="#333"/></linearGradient><linearGradient id="screen" x1="0" y1="0" x2="1" y2="1"><stop stop-color="#050505"/><stop offset=".6" stop-color="#202020"/><stop offset="1" stop-color="#070707"/></linearGradient><filter id="shadow" x="-.5" y="-.5" width="2" height="2"><feGaussianBlur stdDeviation="14"/></filter><filter id="glow" x="-.5" y="-.5" width="2" height="2"><feGaussianBlur stdDeviation="5"/></filter><clipPath id="display"><rect x="237" y="148" width="486" height="278" rx="10"/></clipPath></defs><rect width="960" height="600" fill="url(#bg)"/><ellipse cx="480" cy="495" rx="250" ry="22" fill="#000" filter="url(#shadow)"/><path d="M450 415h60v65h-60z" fill="url(#metal)"/><ellipse cx="480" cy="479" rx="98" ry="13" fill="url(#metal)" stroke="#777"/><rect x="214" y="130" width="536" height="320" rx="23" fill="#070707" transform="translate(8 8)"/><rect x="211" y="124" width="538" height="324" rx="23" fill="url(#metal)" stroke="#aaa"/><rect x="230" y="141" width="500" height="291" rx="13" fill="url(#screen)" stroke="#555"/><g clip-path="url(#display)"><path d="M200 168C330 156 390 243 510 182S665 104 770 163" stroke="#eee" stroke-width="2.0" opacity="0.28" fill="none"/><path d="M200 183C330 171 390 258 510 197S665 119 770 178" stroke="#eee" stroke-width="2.7" opacity="0.38" fill="none"/><path d="M200 198C330 186 390 273 510 212S665 134 770 193" stroke="#eee" stroke-width="3.4" opacity="0.48000000000000004" fill="none"/><path d="M200 213C330 201 390 288 510 227S665 149 770 208" stroke="#eee" stroke-width="4.1" opacity="0.5800000000000001" fill="none"/><path d="M200 228C330 216 390 303 510 242S665 164 770 223" stroke="#eee" stroke-width="2.0" opacity="0.68" fill="none"/><path d="M200 243C330 231 390 318 510 257S665 179 770 238" stroke="#eee" stroke-width="2.7" opacity="0.78" fill="none"/><path d="M200 258C330 246 390 333 510 272S665 194 770 253" stroke="#eee" stroke-width="3.4" opacity="0.28" fill="none"/><path d="M200 273C330 261 390 348 510 287S665 209 770 268" stroke="#eee" stroke-width="4.1" opacity="0.38" fill="none"/><path d="M200 288C330 276 390 363 510 302S665 224 770 283" stroke="#eee" stroke-width="2.0" opacity="0.48000000000000004" fill="none"/><path d="M200 303C330 291 390 378 510 317S665 239 770 298" stroke="#eee" stroke-width="2.7" opacity="0.5800000000000001" fill="none"/><path d="M200 318C330 306 390 393 510 332S665 254 770 313" stroke="#eee" stroke-width="3.4" opacity="0.68" fill="none"/><path d="M200 333C330 321 390 408 510 347S665 269 770 328" stroke="#eee" stroke-width="4.1" opacity="0.78" fill="none"/><path d="M200 348C330 336 390 423 510 362S665 284 770 343" stroke="#eee" stroke-width="2.0" opacity="0.28" fill="none"/><path d="M200 363C330 351 390 438 510 377S665 299 770 358" stroke="#eee" stroke-width="2.7" opacity="0.38" fill="none"/><path d="M200 378C330 366 390 453 510 392S665 314 770 373" stroke="#eee" stroke-width="3.4" opacity="0.48000000000000004" fill="none"/><path d="M200 393C330 381 390 468 510 407S665 329 770 388" stroke="#eee" stroke-width="4.1" opacity="0.5800000000000001" fill="none"/><circle cx="484" cy="281" r="72" fill="#f0f0f0" opacity=".08" filter="url(#glow)"/><circle cx="484" cy="281" r="58" fill="none" stroke="#eee" stroke-width="2"/><path d="M237 298h486" stroke="#fff" stroke-width="2" opacity=".5"/></g><circle cx="480" cy="438" r="2" fill="#aaa"/></svg>